<svg xmlns="http://www.w3.org/2000/svg" width="60" height="60" viewBox="0 0 60 60">
    <path fill="#FFF" fill-rule="nonzero" id="a" d="M30 37.544c6.316 0 12.895 1.374 19.737 4.123C56.579 44.415 60 48.012 60 52.457V60H0v-7.544c0-4.444 3.421-8.04 10.263-10.79 6.842-2.748 13.421-4.122 19.737-4.122zM30 30c-4.094 0-7.602-1.462-10.526-4.386-2.924-2.924-4.386-6.433-4.386-10.526 0-4.094 1.462-7.632 4.386-10.614C22.398 1.49 25.906 0 30 0c4.094 0 7.602 1.491 10.526 4.474 2.924 2.982 4.386 6.52 4.386 10.614 0 4.093-1.462 7.602-4.386 10.526C37.602 28.538 34.094 30 30 30z"/>
</svg>
