<svg xmlns="http://www.w3.org/2000/svg" xmlns:xlink="http://www.w3.org/1999/xlink" width="60" height="60" viewBox="0 0 60 60">
    <defs>
        <path id="a" d="M24.915 44.14l18.832-18.817-3.304-3.301-15.528 15.406-6.057-6.052-3.304 3.3 9.361 9.464zm4.736-32.902c-.661 0-1.212.22-1.652.66-.44.44-.661.99-.661 1.65 0 .661.22 1.23.66 1.706.441.477.992.716 1.653.716.66 0 1.211-.239 1.652-.716.44-.476.66-1.045.66-1.705 0-.66-.22-1.21-.66-1.65-.441-.441-.992-.661-1.652-.661zm17.11-.802H36.54a7.663 7.663 0 0 0-2.642-3.557c-1.224-.918-2.64-1.377-4.248-1.377s-3.024.459-4.25 1.377a7.663 7.663 0 0 0-2.64 3.557H12.54c-1.302 0-2.45.497-3.446 1.492-.995.994-1.493 2.142-1.493 3.442v34.194c0 1.3.498 2.448 1.493 3.442.995.995 2.144 1.492 3.445 1.492h34.22c1.302 0 2.45-.497 3.446-1.492.995-.994 1.493-2.142 1.493-3.442V15.37c0-1.3-.498-2.448-1.493-3.442-.995-.995-2.144-1.492-3.445-1.492zM21.674 2.62C23.99.885 26.72 0 29.651 0c2.93 0 5.66.885 7.976 2.62a13.992 13.992 0 0 1 2.255 2.112h6.178c3.012 0 5.753 1.187 7.902 3.334 2.15 2.148 3.34 4.89 3.34 7.904v32.792c0 3.013-1.19 5.756-3.34 7.904C51.813 58.813 49.072 60 46.06 60H13.242c-3.012 0-5.754-1.187-7.903-3.334C3.189 54.518 2 51.776 2 48.762V15.97c0-3.013 1.19-5.756 3.339-7.904 2.149-2.147 4.89-3.334 7.903-3.334h6.177a13.992 13.992 0 0 1 2.255-2.112z"/>
    </defs>
    <use fill="#0983f0" fill-rule="nonzero" xlink:href="#a"/>
</svg>