<svg xmlns="http://www.w3.org/2000/svg" xmlns:xlink="http://www.w3.org/1999/xlink" width="60" height="60" viewBox="0 0 60 52">
    <defs>
        <path id="a" d="M31.473 18.439h4.286v12.145l10.045 6.072-2.143 3.509-12.188-7.422V18.439zM34.286 4c7.053 0 13.102 2.519 18.147 7.557C57.478 16.595 60 22.712 60 29.909c0 7.197-2.522 13.314-7.567 18.352s-11.094 7.557-18.147 7.557c-7.054 0-13.08-2.519-18.08-7.557l4.017-4.183c3.929 3.958 8.616 5.938 14.063 5.938 5.535 0 10.268-1.957 14.196-5.87 3.929-3.914 5.893-8.66 5.893-14.237 0-5.578-1.964-10.323-5.893-14.236-3.928-3.914-8.66-5.87-14.196-5.87s-10.246 1.956-14.13 5.87c-3.884 3.913-5.826 8.658-5.826 14.236h8.572L11.384 41.514l-.268-.405L0 29.91h8.571c0-7.197 2.523-13.314 7.567-18.352C21.183 6.519 27.232 4 34.286 4z"/>
    </defs>
    <use fill="#288BE4" fill-rule="nonzero" transform="translate(0 -4)" xlink:href="#a"/>
</svg>