<svg xmlns="http://www.w3.org/2000/svg" xmlns:xlink="http://www.w3.org/1999/xlink" width="60" height="60" viewBox="0 0 60 60">
    <defs>
        <path id="a" d="M14.773 18.279c.95 0 1.771-.347 2.465-1.041s1.04-1.516 1.04-2.465c0-.95-.346-1.77-1.04-2.465-.694-.693-1.516-1.04-2.465-1.04-.95 0-1.77.347-2.465 1.04-.693.694-1.04 1.516-1.04 2.465 0 .95.347 1.771 1.04 2.465.694.694 1.516 1.04 2.465 1.04zm38.268 10.69l-22.01-22.01c-.916-.917-2.063-1.376-3.438-1.376H10.398c-1.3 0-2.426.478-3.382 1.433-.955.956-1.433 2.083-1.433 3.382v17.195c0 1.375.459 2.522 1.376 3.439l22.01 22.01c.916.916 2.063 1.375 3.438 1.375 1.376 0 2.522-.459 3.44-1.376L53.04 35.846c.917-.917 1.376-2.063 1.376-3.439 0-1.375-.459-2.522-1.376-3.439zm3.692-4.669C58.88 26.448 60 29.246 60 32.3c0 3.055-1.12 5.853-3.267 8L40.3 56.734C38.153 58.88 35.355 60 32.3 60c-3.055 0-5.853-1.12-8.001-3.267L3.267 35.7C1.12 33.552 0 30.754 0 27.7V11.268c0-3.03 1.172-5.796 3.322-7.946C5.472 1.172 8.238 0 11.268 0H27.7c3.054 0 5.852 1.12 8 3.267L56.733 24.3z"/>
    </defs>
    <use fill="#288BE4" fill-rule="nonzero" xlink:href="#a"/>
</svg>