<svg xmlns="http://www.w3.org/2000/svg" width="60" height="60" viewBox="0 0 26 21">
    <path fill="#FFF" fill-rule="nonzero" d="M26 2.494a11.133 11.133 0 0 1-2.673 2.74c.011.153.017.382.017.689 0 1.422-.21 2.84-.627 4.257a15.347 15.347 0 0 1-1.905 4.077 16.054 16.054 0 0 1-3.044 3.454c-1.177 1-2.596 1.799-4.257 2.395-1.66.596-3.437.894-5.328.894-2.98 0-5.708-.793-8.183-2.379.385.044.814.066 1.287.066 2.474 0 4.68-.755 6.615-2.264a5.214 5.214 0 0 1-3.101-1.059 5.184 5.184 0 0 1-1.88-2.616c.362.054.697.082 1.005.082.473 0 .94-.06 1.403-.18a5.248 5.248 0 0 1-3.06-1.83c-.809-.968-1.213-2.092-1.213-3.372v-.065c.748.415 1.55.64 2.408.672A5.304 5.304 0 0 1 1.732 6.17a5.14 5.14 0 0 1-.643-2.527c0-.962.242-1.854.726-2.674a15.09 15.09 0 0 0 4.858 3.913 14.912 14.912 0 0 0 6.129 1.632A5.855 5.855 0 0 1 12.67 5.3c0-1.465.52-2.715 1.56-3.749C15.267.517 16.524 0 17.998 0c1.54 0 2.837.558 3.893 1.673a10.484 10.484 0 0 0 3.382-1.28c-.407 1.259-1.188 2.232-2.343 2.921A10.664 10.664 0 0 0 26 2.494z"/>
</svg>