<svg xmlns="http://www.w3.org/2000/svg" width="60" height="60" viewBox="0 0 30 21">
    <path fill="#FFF" fill-rule="nonzero" d="M11.903 14.367l8.103-4.167-8.103-4.217v8.384zM15 0c1.875 0 3.686.025 5.432.075 1.747.05 3.028.103 3.843.158L25.497.3c.01 0 .106.008.284.025.179.017.307.033.385.05.078.017.21.042.394.075.184.033.343.078.477.133.134.056.29.128.469.217.178.089.351.197.519.325a3.963 3.963 0 0 1 .745.75c.106.139.267.464.485.975.218.511.366 1.072.444 1.683.089.711.159 1.47.209 2.275.05.806.08 1.436.092 1.892v2.933a35.131 35.131 0 0 1-.301 4.834 6.626 6.626 0 0 1-.419 1.658c-.2.494-.38.836-.536 1.025l-.234.283a3.963 3.963 0 0 1-.485.442c-.168.128-.34.233-.52.317-.178.083-.334.152-.468.208a2.34 2.34 0 0 1-.477.133 26.24 26.24 0 0 0-.402.075 4.245 4.245 0 0 1-.385.05c-.173.017-.265.025-.276.025-2.802.211-6.3.317-10.497.317a310.13 310.13 0 0 1-6.018-.108c-1.702-.05-2.821-.092-3.357-.125l-.82-.067-.603-.067a7.98 7.98 0 0 1-.912-.166c-.207-.056-.491-.173-.854-.35a3.188 3.188 0 0 1-1.205-.992c-.107-.139-.268-.464-.486-.975a6.324 6.324 0 0 1-.444-1.683c-.089-.711-.159-1.47-.209-2.275-.05-.806-.08-1.436-.092-1.892V9.367c-.011-1.611.09-3.223.301-4.834A6.626 6.626 0 0 1 .72 2.875c.2-.494.38-.836.536-1.025l.234-.283c.156-.167.318-.314.485-.442.168-.128.34-.236.52-.325.178-.089.334-.161.468-.217.134-.055.293-.1.477-.133s.316-.058.394-.075c.078-.017.206-.033.385-.05C4.397.308 4.492.3 4.503.3 7.305.1 10.803 0 15 0z"/>
</svg>