<svg xmlns="http://www.w3.org/2000/svg" width="21" height="32" viewBox="0 0 21 32">
    <g fill="none" fill-rule="evenodd">
        <path fill="#0983F0" d="M0 0h21v21H0V0zm10.5 21H21v10.5L10.5 21z"/>
        <path fill="#FFF" d="M8.346 11.882v4.281H6V4h4.108c.843 0 1.572.095 2.189.286.616.19 1.125.457 1.526.8.4.341.697.75.89 1.227.191.477.287.998.287 1.565 0 .588-.102 1.128-.305 1.619-.204.49-.509.913-.916 1.266-.407.353-.916.628-1.526.824-.61.196-1.326.295-2.145.295H8.346zm0-1.767h1.762c.43 0 .805-.052 1.125-.155.32-.104.584-.253.793-.446.21-.194.366-.43.471-.707.105-.277.157-.587.157-.93 0-.325-.052-.619-.157-.883a1.744 1.744 0 0 0-.47-.672 2.117 2.117 0 0 0-.794-.425 3.85 3.85 0 0 0-1.125-.147H8.346v4.365z"/>
    </g>
</svg>
